<svg width="150" height="50" viewBox="0 0 150 50" fill="none" xmlns="http://www.w3.org/2000/svg">
  <!-- Background -->
  <rect width="150" height="50" rx="10" fill="#0a4d68" stroke="#00a8cc" stroke-width="1.5"/>
  
  <!-- Wave pattern (море) -->
  <path d="M8 35 Q15 30, 22 35 T36 35 T50 35 T64 35 T78 35" stroke="#00d4ff" stroke-width="2" fill="none" opacity="0.8"/>
  <path d="M8 40 Q15 35, 22 40 T36 40 T50 40 T64 40 T78 40" stroke="#00d4ff" stroke-width="2" fill="none" opacity="0.6"/>
  
  <!-- Shopping/Product icon -->
  <circle cx="95" cy="18" r="6" fill="#00d4ff" opacity="0.9"/>
  <path d="M89 18 L91 26 L99 26 L101 18 Z" fill="#00d4ff" opacity="0.9"/>
  <path d="M93 18 L93 14 L97 14 L97 18" stroke="#00d4ff" stroke-width="1.5" fill="none" opacity="0.9"/>
  
  <!-- Text -->
  <text x="8" y="18" font-family="Arial, sans-serif" font-size="11" font-weight="bold" fill="#ffffff">Продаю море</text>
  <text x="8" y="28" font-family="Arial, sans-serif" font-size="7" fill="#00d4ff" opacity="0.9">Digital Platform</text>
  
  <!-- Decorative dots -->
  <circle cx="110" cy="12" r="1.5" fill="#00d4ff" opacity="0.6"/>
  <circle cx="118" cy="16" r="1" fill="#00d4ff" opacity="0.5"/>
  <circle cx="125" cy="12" r="1.5" fill="#00d4ff" opacity="0.6"/>
</svg>
