<svg xmlns="http://www.w3.org/2000/svg" viewBox="0 0 1200 750" fill="none">
  <defs>
    <linearGradient id="bg" x1="0" y1="0" x2="1" y2="1">
      <stop stop-color="#0c0b09"/>
      <stop offset="0.45" stop-color="#141210"/>
      <stop offset="1" stop-color="#0c0b09"/>
    </linearGradient>
    <linearGradient id="lime" x1="0" y1="0" x2="1" y2="0">
      <stop stop-color="#dfff1c" stop-opacity="0.35"/>
      <stop offset="1" stop-color="#dfff1c" stop-opacity="0"/>
    </linearGradient>
  </defs>
  <rect width="1200" height="750" fill="url(#bg)"/>
  <rect x="0" y="0" width="1200" height="750" fill="url(#lime)" opacity="0.4"/>
  <g opacity="0.12" stroke="#e8e4dc">
    <path d="M0 120h1200M0 240h1200M0 360h1200M0 480h1200M0 600h1200"/>
    <path d="M120 0v750M240 0v750M360 0v750M480 0v750M600 0v750M720 0v750M840 0v750M960 0v750M1080 0v750"/>
  </g>
  <rect x="180" y="140" width="520" height="480" rx="32" fill="#181512" stroke="#2a2622" stroke-width="2"/>
  <rect x="220" y="200" width="440" height="72" rx="12" fill="#12100e" stroke="#2a2622"/>
  <rect x="220" y="300" width="200" height="120" rx="16" fill="#dfff1c" fill-opacity="0.12" stroke="#dfff1c" stroke-opacity="0.35"/>
  <rect x="440" y="300" width="220" height="120" rx="16" fill="#12100e" stroke="#2a2622"/>
  <rect x="220" y="440" width="440" height="56" rx="12" fill="#12100e" stroke="#2a2622"/>
  <rect x="760" y="180" width="320" height="420" rx="40" fill="#0c0b09" stroke="#2a2622" stroke-width="2"/>
  <rect x="792" y="220" width="256" height="520" rx="28" fill="#141210" stroke="#2a2622"/>
  <rect x="820" y="280" width="200" height="48" rx="10" fill="#12100e" stroke="#2a2622"/>
  <rect x="820" y="360" width="200" height="160" rx="14" fill="#dfff1c" fill-opacity="0.08" stroke="#dfff1c" stroke-opacity="0.25"/>
  <text x="180" y="100" fill="#e8e4dc" font-family="system-ui, sans-serif" font-size="42" font-weight="800" letter-spacing="-0.03em">>18;L=K9 10=:</text>
  <text x="180" y="138" fill="#9c9690" font-family="ui-monospace, monospace" font-size="14" letter-spacing="0.2em">FORA · PRODUCT</text>
</svg>
